<svg width="100" height="100" viewBox="0 0 100 100" fill="none" xmlns="http://www.w3.org/2000/svg">
<path d="M50.5 101C78.3904 101 101 78.3904 101 50.5C101 22.6096 78.3904 0 50.5 0C22.6096 0 0 22.6096 0 50.5C0 78.3904 22.6096 101 50.5 101Z" fill="#00a0e1"/>
<g clip-path="url(#clip0)">
<path d="M34.0294 57.6954C36.6434 55.0815 39.7548 53.1464 43.1495 51.975C39.5137 49.4708 37.125 45.2799 37.125 40.541C37.125 32.8904 43.3493 26.666 51 26.666C58.6507 26.666 64.875 32.8904 64.875 40.541C64.875 45.2799 62.4863 49.4708 58.8504 51.975C62.2451 53.1464 65.3565 55.0815 67.9705 57.6954C72.5035 62.2285 75 68.2554 75 74.666H71.25C71.25 63.5001 62.1659 54.416 51 54.416C39.8341 54.416 30.75 63.5001 30.75 74.666H27C27 68.2554 29.4965 62.2285 34.0294 57.6954ZM51 50.666C56.5829 50.666 61.125 46.124 61.125 40.541C61.125 34.958 56.5829 30.416 51 30.416C45.4171 30.416 40.875 34.958 40.875 40.541C40.875 46.124 45.4171 50.666 51 50.666Z" fill="white"/>
</g>
<defs>
<clipPath id="clip0">
<rect width="48" height="48" fill="white" transform="matrix(-1 0 0 1 75 24)"/>
</clipPath>
</defs>
</svg>
